<mxfile host="65bd71144e">
    <diagram id="am9PgdyDm5ntJJdIKiQN" name="Page-1">
        <mxGraphModel dx="3316" dy="1067" grid="1" gridSize="10" guides="1" tooltips="1" connect="1" arrows="1" fold="1" page="1" pageScale="1" pageWidth="850" pageHeight="1100" math="0" shadow="0">
            <root>
                <mxCell id="0"/>
                <mxCell id="1" parent="0"/>
                <mxCell id="216" value="" style="rounded=0;whiteSpace=wrap;html=1;fontColor=#333333;fillColor=#f5f5f5;strokeColor=#666666;dashed=1;" parent="1" vertex="1">
                    <mxGeometry x="40" y="260" width="770" height="289" as="geometry"/>
                </mxCell>
                <mxCell id="2" value="" style="verticalLabelPosition=bottom;html=1;verticalAlign=top;align=center;strokeColor=none;fillColor=#00BEF2;shape=mxgraph.azure.virtual_network;pointerEvents=1;" parent="1" vertex="1">
                    <mxGeometry x="50" y="275" width="50" height="27.500000000000004" as="geometry"/>
                </mxCell>
                <mxCell id="3" value="Virtual Network&lt;br&gt;192.168.0.0/25" style="text;html=1;strokeColor=none;fillColor=none;align=left;verticalAlign=middle;whiteSpace=wrap;rounded=0;" parent="1" vertex="1">
                    <mxGeometry x="100" y="273.75" width="210" height="30" as="geometry"/>
                </mxCell>
                <mxCell id="226" value="" style="group" parent="1" vertex="1" connectable="0">
                    <mxGeometry x="80" y="320" width="250" height="150" as="geometry"/>
                </mxCell>
                <mxCell id="218" value="" style="rounded=0;whiteSpace=wrap;html=1;fillColor=#E8EFFC;strokeColor=#6c8ebf;dashed=1;" parent="226" vertex="1">
                    <mxGeometry width="250" height="150" as="geometry"/>
                </mxCell>
                <mxCell id="219" value="Private Link Subnet&lt;br&gt;192.168.0.0/26" style="text;html=1;strokeColor=none;fillColor=none;align=left;verticalAlign=middle;whiteSpace=wrap;rounded=0;" parent="226" vertex="1">
                    <mxGeometry x="42.37980769230769" y="5" width="186.89903846153845" height="30" as="geometry"/>
                </mxCell>
                <mxCell id="324" value="&lt;span style=&quot;color: rgb(0, 0, 0);&quot;&gt;Private Link Service&lt;/span&gt;&lt;br style=&quot;color: rgb(63, 63, 63); scrollbar-color: rgb(226, 226, 226) rgb(251, 251, 251);&quot;&gt;&lt;span style=&quot;color: rgb(0, 0, 0);&quot;&gt;SNAT IP:192.168.0.4,&lt;span style=&quot;color: rgb(0, 0, 0);&quot;&gt;192.168.0.5&lt;/span&gt;&lt;br&gt;&lt;/span&gt;" style="image;aspect=fixed;html=1;points=[];align=center;fontSize=12;image=img/lib/azure2/networking/Private_Link_Service.svg;labelBackgroundColor=none;" parent="226" vertex="1">
                    <mxGeometry x="96.32999999999998" y="55" width="69" height="40" as="geometry"/>
                </mxCell>
                <mxCell id="288" value="" style="rounded=0;whiteSpace=wrap;html=1;fontColor=#333333;fillColor=#f5f5f5;strokeColor=#666666;dashed=1;" parent="1" vertex="1">
                    <mxGeometry x="-550" y="260" width="447.95" height="290" as="geometry"/>
                </mxCell>
                <mxCell id="289" value="" style="verticalLabelPosition=bottom;html=1;verticalAlign=top;align=center;strokeColor=none;fillColor=#00BEF2;shape=mxgraph.azure.virtual_network;pointerEvents=1;" parent="1" vertex="1">
                    <mxGeometry x="-541" y="276.25" width="50" height="27.500000000000004" as="geometry"/>
                </mxCell>
                <mxCell id="290" value="Virtual Network&lt;br&gt;10.0.0.0/25" style="text;html=1;strokeColor=none;fillColor=none;align=left;verticalAlign=middle;whiteSpace=wrap;rounded=0;" parent="1" vertex="1">
                    <mxGeometry x="-491" y="275" width="210" height="30" as="geometry"/>
                </mxCell>
                <mxCell id="228" value="" style="rounded=0;whiteSpace=wrap;html=1;fillColor=#E8EFFC;strokeColor=#6c8ebf;dashed=1;" parent="1" vertex="1">
                    <mxGeometry x="350" y="320" width="250" height="150" as="geometry"/>
                </mxCell>
                <mxCell id="229" value="" style="shape=image;verticalLabelPosition=bottom;labelBackgroundColor=default;verticalAlign=top;aspect=fixed;imageAspect=0;image=data:image/svg+xml,PHN2ZyB4bWxucz0iaHR0cDovL3d3dy53My5vcmcvMjAwMC9zdmciIHZpZXdCb3g9IjAgMCAxOCAxOCIgaGVpZ2h0PSIxOCIgd2lkdGg9IjE4Ij48ZGVmcz48bGluZWFyR3JhZGllbnQgZ3JhZGllbnRVbml0cz0idXNlclNwYWNlT25Vc2UiIHkyPSI3LjY5NSIgeDI9IjkuMDMzIiB5MT0iMTAuMzA1IiB4MT0iOS4wMzMiIGlkPSJiY2ViNjBkZC04YjhjLTQwOTgtOTRmOC1hZWI0ZGIyZWRhZWYiPjxzdG9wIHN0b3AtY29sb3I9IiM1ZTk2MjQiIG9mZnNldD0iMCIvPjxzdG9wIHN0b3AtY29sb3I9IiM2ZmIwMmEiIG9mZnNldD0iMC4yNDEiLz48c3RvcCBzdG9wLWNvbG9yPSIjN2NjNTJmIiBvZmZzZXQ9IjAuNTAxIi8+PHN0b3Agc3RvcC1jb2xvcj0iIzgzZDIzMiIgb2Zmc2V0PSIwLjc1NiIvPjxzdG9wIHN0b3AtY29sb3I9IiM4NmQ2MzMiIG9mZnNldD0iMSIvPjwvbGluZWFyR3JhZGllbnQ+PC9kZWZzPjxnIGlkPSJhYzc1YzIxZS0yYTkzLTQ2NGYtODA0OC1mMTUxOGRhYjhiNzUiPjxnPjxwYXRoIGZpbGw9InVybCgjYmNlYjYwZGQtOGI4Yy00MDk4LTk0ZjgtYWViNGRiMmVkYWVmKSIgZD0iTTkuMDMxLDcuN0ExLjMwNSwxLjMwNSwwLDEsMCwxMC4zMzgsOSwxLjMwNSwxLjMwNSwwLDAsMCw5LjAzMSw3LjdaIi8+PGc+PHBhdGggZmlsbD0iIzUwZTZmZiIgdHJhbnNmb3JtPSJ0cmFuc2xhdGUoMTMuNjUzIDE2LjQ4NSkgcm90YXRlKDEzNC45MTkpIiBkPSJNMi45NjEsNy4zNzRoLjg4OGEuMjg0LjI4NCwwLDAsMSwuMjg0LjI4NHY2LjU1MWEuNTY4LjU2OCwwLDAsMS0uNTY4LjU2OEgyLjY3N2EwLDAsMCwwLDEsMCwwVjcuNjU5QS4yODQuMjg0LDAsMCwxLDIuOTYxLDcuMzc0WiIvPjxwYXRoIGZpbGw9IiMxNDkwZGYiIHRyYW5zZm9ybT0idHJhbnNsYXRlKDUuODQ3IC0wLjM1OCkgcm90YXRlKDQ0LjkxOSkiIGQ9Ik0yLjkxMywzLjI0NEgzLjhhLjI4NC4yODQsMCwwLDEsLjI4NC4yODR2Ny4wMTVhMCwwLDAsMCwxLDAsMEgzLjJhLjU2OC41NjgsMCwwLDEtLjU2OC0uNTY4VjMuNTI4YS4yODQuMjg0LDAsMCwxLC4yODQtLjI4NFoiLz48cGF0aCBmaWxsPSIjNTBlNmZmIiB0cmFuc2Zvcm09InRyYW5zbGF0ZSgxMi4xMzIgLTcuMDc5KSByb3RhdGUoNDUuMDgxKSIgZD0iTTEzLjg2Nyw3LjM3NGguODg4YS41NjguNTY4LDAsMCwxLC41NjguNTY4djYuNTUxYS4yODQuMjg0LDAsMCwxLS4yODQuMjg0aC0uODg4YS4yODQuMjg0LDAsMCwxLS4yODQtLjI4NFY3LjM3NGEwLDAsMCwwLDEsMCwwWiIvPjxwYXRoIGZpbGw9IiMxNDkwZGYiIHRyYW5zZm9ybT0idHJhbnNsYXRlKDI5Ljg3OSAxLjQzNSkgcm90YXRlKDEzNS4wODEpIiBkPSJNMTQuNDgzLDMuMjQ0aC44ODhhMCwwLDAsMCwxLDAsMHY3LjAxNWEuMjg0LjI4NCwwLDAsMS0uMjg0LjI4NEgxNC4yYS4yODQuMjg0LDAsMCwxLS4yODQtLjI4NFYzLjgxMmEuNTY4LjU2OCwwLDAsMSwuNTY4LS41NjhaIi8+PC9nPjwvZz48L2c+PC9zdmc+;" parent="1" vertex="1">
                    <mxGeometry x="352.22222222222223" y="320" width="40" height="40" as="geometry"/>
                </mxCell>
                <mxCell id="230" value="AppGW Subnet&lt;br&gt;192.168.0.64/26" style="text;html=1;strokeColor=none;fillColor=none;align=left;verticalAlign=middle;whiteSpace=wrap;rounded=0;" parent="1" vertex="1">
                    <mxGeometry x="396.6666666666667" y="325" width="233.33333333333334" height="30" as="geometry"/>
                </mxCell>
                <mxCell id="251" value="" style="endArrow=classic;html=1;exitX=0.955;exitY=0.502;exitDx=0;exitDy=0;exitPerimeter=0;entryX=0;entryY=0.517;entryDx=0;entryDy=0;entryPerimeter=0;" parent="1" target="337" edge="1">
                    <mxGeometry width="50" height="50" relative="1" as="geometry">
                        <mxPoint x="498.86222222222204" y="396.0999999999999" as="sourcePoint"/>
                        <mxPoint x="725" y="396" as="targetPoint"/>
                        <Array as="points"/>
                    </mxGeometry>
                </mxCell>
                <mxCell id="250" value="" style="endArrow=classic;html=1;" parent="1" edge="1">
                    <mxGeometry width="50" height="50" relative="1" as="geometry">
                        <mxPoint x="246" y="396" as="sourcePoint"/>
                        <mxPoint x="450" y="396" as="targetPoint"/>
                        <Array as="points"/>
                    </mxGeometry>
                </mxCell>
                <mxCell id="325" value="Private Link" style="image;aspect=fixed;html=1;points=[];align=center;fontSize=12;image=img/lib/azure2/networking/Private_Link.svg;" parent="1" vertex="1">
                    <mxGeometry x="-66" y="349" width="72" height="66" as="geometry"/>
                </mxCell>
                <mxCell id="326" value="" style="endArrow=classic;html=1;" parent="1" edge="1">
                    <mxGeometry width="50" height="50" relative="1" as="geometry">
                        <mxPoint x="10" y="395" as="sourcePoint"/>
                        <mxPoint x="176" y="395" as="targetPoint"/>
                        <Array as="points"/>
                    </mxGeometry>
                </mxCell>
                <mxCell id="301" value="" style="rounded=0;whiteSpace=wrap;html=1;fillColor=#E8EFFC;strokeColor=#6c8ebf;dashed=1;" parent="1" vertex="1">
                    <mxGeometry x="-500" y="318.5" width="357.95" height="150" as="geometry"/>
                </mxCell>
                <mxCell id="302" value="" style="shape=image;verticalLabelPosition=bottom;labelBackgroundColor=default;verticalAlign=top;aspect=fixed;imageAspect=0;image=data:image/svg+xml,PHN2ZyB4bWxucz0iaHR0cDovL3d3dy53My5vcmcvMjAwMC9zdmciIHZpZXdCb3g9IjAgMCAxOCAxOCIgaGVpZ2h0PSIxOCIgd2lkdGg9IjE4Ij48ZGVmcz48bGluZWFyR3JhZGllbnQgZ3JhZGllbnRVbml0cz0idXNlclNwYWNlT25Vc2UiIHkyPSI3LjY5NSIgeDI9IjkuMDMzIiB5MT0iMTAuMzA1IiB4MT0iOS4wMzMiIGlkPSJiY2ViNjBkZC04YjhjLTQwOTgtOTRmOC1hZWI0ZGIyZWRhZWYiPjxzdG9wIHN0b3AtY29sb3I9IiM1ZTk2MjQiIG9mZnNldD0iMCIvPjxzdG9wIHN0b3AtY29sb3I9IiM2ZmIwMmEiIG9mZnNldD0iMC4yNDEiLz48c3RvcCBzdG9wLWNvbG9yPSIjN2NjNTJmIiBvZmZzZXQ9IjAuNTAxIi8+PHN0b3Agc3RvcC1jb2xvcj0iIzgzZDIzMiIgb2Zmc2V0PSIwLjc1NiIvPjxzdG9wIHN0b3AtY29sb3I9IiM4NmQ2MzMiIG9mZnNldD0iMSIvPjwvbGluZWFyR3JhZGllbnQ+PC9kZWZzPjxnIGlkPSJhYzc1YzIxZS0yYTkzLTQ2NGYtODA0OC1mMTUxOGRhYjhiNzUiPjxnPjxwYXRoIGZpbGw9InVybCgjYmNlYjYwZGQtOGI4Yy00MDk4LTk0ZjgtYWViNGRiMmVkYWVmKSIgZD0iTTkuMDMxLDcuN0ExLjMwNSwxLjMwNSwwLDEsMCwxMC4zMzgsOSwxLjMwNSwxLjMwNSwwLDAsMCw5LjAzMSw3LjdaIi8+PGc+PHBhdGggZmlsbD0iIzUwZTZmZiIgdHJhbnNmb3JtPSJ0cmFuc2xhdGUoMTMuNjUzIDE2LjQ4NSkgcm90YXRlKDEzNC45MTkpIiBkPSJNMi45NjEsNy4zNzRoLjg4OGEuMjg0LjI4NCwwLDAsMSwuMjg0LjI4NHY2LjU1MWEuNTY4LjU2OCwwLDAsMS0uNTY4LjU2OEgyLjY3N2EwLDAsMCwwLDEsMCwwVjcuNjU5QS4yODQuMjg0LDAsMCwxLDIuOTYxLDcuMzc0WiIvPjxwYXRoIGZpbGw9IiMxNDkwZGYiIHRyYW5zZm9ybT0idHJhbnNsYXRlKDUuODQ3IC0wLjM1OCkgcm90YXRlKDQ0LjkxOSkiIGQ9Ik0yLjkxMywzLjI0NEgzLjhhLjI4NC4yODQsMCwwLDEsLjI4NC4yODR2Ny4wMTVhMCwwLDAsMCwxLDAsMEgzLjJhLjU2OC41NjgsMCwwLDEtLjU2OC0uNTY4VjMuNTI4YS4yODQuMjg0LDAsMCwxLC4yODQtLjI4NFoiLz48cGF0aCBmaWxsPSIjNTBlNmZmIiB0cmFuc2Zvcm09InRyYW5zbGF0ZSgxMi4xMzIgLTcuMDc5KSByb3RhdGUoNDUuMDgxKSIgZD0iTTEzLjg2Nyw3LjM3NGguODg4YS41NjguNTY4LDAsMCwxLC41NjguNTY4djYuNTUxYS4yODQuMjg0LDAsMCwxLS4yODQuMjg0aC0uODg4YS4yODQuMjg0LDAsMCwxLS4yODQtLjI4NFY3LjM3NGEwLDAsMCwwLDEsMCwwWiIvPjxwYXRoIGZpbGw9IiMxNDkwZGYiIHRyYW5zZm9ybT0idHJhbnNsYXRlKDI5Ljg3OSAxLjQzNSkgcm90YXRlKDEzNS4wODEpIiBkPSJNMTQuNDgzLDMuMjQ0aC44ODhhMCwwLDAsMCwxLDAsMHY3LjAxNWEuMjg0LjI4NCwwLDAsMS0uMjg0LjI4NEgxNC4yYS4yODQuMjg0LDAsMCwxLS4yODQtLjI4NFYzLjgxMmEuNTY4LjU2OCwwLDAsMSwuNTY4LS41NjhaIi8+PC9nPjwvZz48L2c+PC9zdmc+;" parent="1" vertex="1">
                    <mxGeometry x="-496.0004120879121" y="315" width="40" height="40" as="geometry"/>
                </mxCell>
                <mxCell id="303" value="Client Subnet&lt;br&gt;10.0.0.0/28" style="text;html=1;strokeColor=none;fillColor=none;align=left;verticalAlign=middle;whiteSpace=wrap;rounded=0;" parent="1" vertex="1">
                    <mxGeometry x="-449.00865384615383" y="320" width="246.70673076923077" height="30" as="geometry"/>
                </mxCell>
                <mxCell id="328" value="" style="endArrow=classic;html=1;" parent="1" edge="1">
                    <mxGeometry width="50" height="50" relative="1" as="geometry">
                        <mxPoint x="-201" y="394" as="sourcePoint"/>
                        <mxPoint x="-70" y="394" as="targetPoint"/>
                        <Array as="points"/>
                    </mxGeometry>
                </mxCell>
                <mxCell id="304" value="Client VM&lt;br&gt;10.0.0.4" style="aspect=fixed;html=1;points=[];align=center;image;fontSize=12;image=img/lib/azure2/compute/Virtual_Machine.svg;labelBackgroundColor=none;" parent="1" vertex="1">
                    <mxGeometry x="-402.0035130494506" y="367.5" width="53.91" height="50" as="geometry"/>
                </mxCell>
                <mxCell id="329" value="" style="shape=image;verticalLabelPosition=bottom;labelBackgroundColor=default;verticalAlign=top;aspect=fixed;imageAspect=0;image=data:image/svg+xml,PHN2ZyB4bWxucz0iaHR0cDovL3d3dy53My5vcmcvMjAwMC9zdmciIHZpZXdCb3g9IjAgMCAxOCAxOCIgaGVpZ2h0PSIxOCIgd2lkdGg9IjE4Ij48ZGVmcz48bGluZWFyR3JhZGllbnQgZ3JhZGllbnRVbml0cz0idXNlclNwYWNlT25Vc2UiIHkyPSI3LjY5NSIgeDI9IjkuMDMzIiB5MT0iMTAuMzA1IiB4MT0iOS4wMzMiIGlkPSJiY2ViNjBkZC04YjhjLTQwOTgtOTRmOC1hZWI0ZGIyZWRhZWYiPjxzdG9wIHN0b3AtY29sb3I9IiM1ZTk2MjQiIG9mZnNldD0iMCIvPjxzdG9wIHN0b3AtY29sb3I9IiM2ZmIwMmEiIG9mZnNldD0iMC4yNDEiLz48c3RvcCBzdG9wLWNvbG9yPSIjN2NjNTJmIiBvZmZzZXQ9IjAuNTAxIi8+PHN0b3Agc3RvcC1jb2xvcj0iIzgzZDIzMiIgb2Zmc2V0PSIwLjc1NiIvPjxzdG9wIHN0b3AtY29sb3I9IiM4NmQ2MzMiIG9mZnNldD0iMSIvPjwvbGluZWFyR3JhZGllbnQ+PC9kZWZzPjxnIGlkPSJhYzc1YzIxZS0yYTkzLTQ2NGYtODA0OC1mMTUxOGRhYjhiNzUiPjxnPjxwYXRoIGZpbGw9InVybCgjYmNlYjYwZGQtOGI4Yy00MDk4LTk0ZjgtYWViNGRiMmVkYWVmKSIgZD0iTTkuMDMxLDcuN0ExLjMwNSwxLjMwNSwwLDEsMCwxMC4zMzgsOSwxLjMwNSwxLjMwNSwwLDAsMCw5LjAzMSw3LjdaIi8+PGc+PHBhdGggZmlsbD0iIzUwZTZmZiIgdHJhbnNmb3JtPSJ0cmFuc2xhdGUoMTMuNjUzIDE2LjQ4NSkgcm90YXRlKDEzNC45MTkpIiBkPSJNMi45NjEsNy4zNzRoLjg4OGEuMjg0LjI4NCwwLDAsMSwuMjg0LjI4NHY2LjU1MWEuNTY4LjU2OCwwLDAsMS0uNTY4LjU2OEgyLjY3N2EwLDAsMCwwLDEsMCwwVjcuNjU5QS4yODQuMjg0LDAsMCwxLDIuOTYxLDcuMzc0WiIvPjxwYXRoIGZpbGw9IiMxNDkwZGYiIHRyYW5zZm9ybT0idHJhbnNsYXRlKDUuODQ3IC0wLjM1OCkgcm90YXRlKDQ0LjkxOSkiIGQ9Ik0yLjkxMywzLjI0NEgzLjhhLjI4NC4yODQsMCwwLDEsLjI4NC4yODR2Ny4wMTVhMCwwLDAsMCwxLDAsMEgzLjJhLjU2OC41NjgsMCwwLDEtLjU2OC0uNTY4VjMuNTI4YS4yODQuMjg0LDAsMCwxLC4yODQtLjI4NFoiLz48cGF0aCBmaWxsPSIjNTBlNmZmIiB0cmFuc2Zvcm09InRyYW5zbGF0ZSgxMi4xMzIgLTcuMDc5KSByb3RhdGUoNDUuMDgxKSIgZD0iTTEzLjg2Nyw3LjM3NGguODg4YS41NjguNTY4LDAsMCwxLC41NjguNTY4djYuNTUxYS4yODQuMjg0LDAsMCwxLS4yODQuMjg0aC0uODg4YS4yODQuMjg0LDAsMCwxLS4yODQtLjI4NFY3LjM3NGEwLDAsMCwwLDEsMCwwWiIvPjxwYXRoIGZpbGw9IiMxNDkwZGYiIHRyYW5zZm9ybT0idHJhbnNsYXRlKDI5Ljg3OSAxLjQzNSkgcm90YXRlKDEzNS4wODEpIiBkPSJNMTQuNDgzLDMuMjQ0aC44ODhhMCwwLDAsMCwxLDAsMHY3LjAxNWEuMjg0LjI4NCwwLDAsMS0uMjg0LjI4NEgxNC4yYS4yODQuMjg0LDAsMCwxLS4yODQtLjI4NFYzLjgxMmEuNTY4LjU2OCwwLDAsMSwuNTY4LS41NjhaIi8+PC9nPjwvZz48L2c+PC9zdmc+;" parent="1" vertex="1">
                    <mxGeometry x="81.0022222222222" y="320" width="40" height="40" as="geometry"/>
                </mxCell>
                <mxCell id="331" value="Private Endpoint&lt;br&gt;10.0.0.5" style="image;aspect=fixed;html=1;points=[];align=center;fontSize=12;image=img/lib/azure2/other/Private_Endpoints.svg;labelBackgroundColor=none;" parent="1" vertex="1">
                    <mxGeometry x="-273" y="350.32" width="68" height="64.68" as="geometry"/>
                </mxCell>
                <mxCell id="332" value="" style="endArrow=classic;html=1;" parent="1" edge="1">
                    <mxGeometry width="50" height="50" relative="1" as="geometry">
                        <mxPoint x="-346" y="394" as="sourcePoint"/>
                        <mxPoint x="-274" y="394" as="targetPoint"/>
                        <Array as="points"/>
                    </mxGeometry>
                </mxCell>
                <mxCell id="333" value="&lt;b&gt;利用者（Consumer）&lt;/b&gt;" style="text;html=1;strokeColor=none;fillColor=none;align=left;verticalAlign=middle;whiteSpace=wrap;rounded=0;fontSize=15;" parent="1" vertex="1">
                    <mxGeometry x="-550" y="230" width="210" height="30" as="geometry"/>
                </mxCell>
                <mxCell id="334" value="&lt;b&gt;アプリの提供者（Provider）&lt;/b&gt;" style="text;html=1;strokeColor=none;fillColor=none;align=left;verticalAlign=middle;whiteSpace=wrap;rounded=0;fontSize=15;" parent="1" vertex="1">
                    <mxGeometry x="40" y="230" width="210" height="30" as="geometry"/>
                </mxCell>
                <mxCell id="336" value="Azure Firewall&lt;br&gt;&lt;span style=&quot;color: rgb(0, 0, 0); text-align: left; text-wrap-mode: wrap;&quot;&gt;192.168.0.68&lt;/span&gt;&lt;span style=&quot;text-align: left;&quot;&gt;&lt;/span&gt;" style="image;sketch=0;aspect=fixed;html=1;points=[];align=center;fontSize=12;image=img/lib/mscae/Azure_Firewall.svg;labelBackgroundColor=none;" parent="1" vertex="1">
                    <mxGeometry x="450" y="365" width="50" height="50" as="geometry"/>
                </mxCell>
                <mxCell id="337" value="Public IP Address" style="aspect=fixed;html=1;points=[];align=center;image;fontSize=12;image=img/lib/azure2/networking/Public_IP_Addresses.svg;strokeColor=default;labelBackgroundColor=none;" parent="1" vertex="1">
                    <mxGeometry x="680" y="366.25" width="71.88" height="57.5" as="geometry"/>
                </mxCell>
                <mxCell id="338" value="Internet" style="aspect=fixed;perimeter=ellipsePerimeter;html=1;align=center;shadow=0;dashed=0;spacingTop=3;image;image=img/lib/active_directory/internet_cloud.svg;labelBackgroundColor=none;" parent="1" vertex="1">
                    <mxGeometry x="870" y="366.25" width="86.51" height="54.5" as="geometry"/>
                </mxCell>
                <mxCell id="339" value="" style="endArrow=classic;html=1;" parent="1" edge="1">
                    <mxGeometry width="50" height="50" relative="1" as="geometry">
                        <mxPoint x="752" y="394.75" as="sourcePoint"/>
                        <mxPoint x="870" y="394.75" as="targetPoint"/>
                        <Array as="points"/>
                    </mxGeometry>
                </mxCell>
                <mxCell id="340" value="UDR" style="image;aspect=fixed;html=1;points=[];align=center;fontSize=12;image=img/lib/azure2/networking/Route_Tables.svg;labelBackgroundColor=none;" parent="1" vertex="1">
                    <mxGeometry x="-493.29" y="415" width="34.58" height="33.5" as="geometry"/>
                </mxCell>
                <mxCell id="341" style="edgeStyle=none;html=1;exitX=0.5;exitY=0;exitDx=0;exitDy=0;fillColor=#d5e8d4;strokeColor=#82b366;strokeWidth=4;endArrow=none;endFill=0;" parent="1" source="342" edge="1">
                    <mxGeometry relative="1" as="geometry">
                        <mxPoint x="-458" y="449" as="targetPoint"/>
                    </mxGeometry>
                </mxCell>
                <mxCell id="342" value="User Define Route" style="shape=table;startSize=25;container=1;collapsible=0;childLayout=tableLayout;strokeColor=#82b366;fontSize=16;fillColor=#d5e8d4;" parent="1" vertex="1">
                    <mxGeometry x="-535.66" y="560" width="420" height="94.50003051757812" as="geometry"/>
                </mxCell>
                <mxCell id="343" value="" style="shape=tableRow;horizontal=0;startSize=0;swimlaneHead=0;swimlaneBody=0;strokeColor=inherit;top=0;left=0;bottom=0;right=0;collapsible=0;dropTarget=0;fillColor=none;points=[[0,0.5],[1,0.5]];portConstraint=eastwest;fontSize=16;" parent="342" vertex="1">
                    <mxGeometry y="25" width="420" height="40" as="geometry"/>
                </mxCell>
                <mxCell id="344" value="Address Prefix" style="shape=partialRectangle;html=1;whiteSpace=wrap;connectable=0;strokeColor=#82b366;overflow=hidden;fillColor=#d5e8d4;top=0;left=0;bottom=0;right=0;pointerEvents=1;fontSize=16;" parent="343" vertex="1">
                    <mxGeometry width="120" height="40" as="geometry">
                        <mxRectangle width="120" height="40" as="alternateBounds"/>
                    </mxGeometry>
                </mxCell>
                <mxCell id="345" value="Next Hop Type" style="shape=partialRectangle;html=1;whiteSpace=wrap;connectable=0;strokeColor=#82b366;overflow=hidden;fillColor=#d5e8d4;top=0;left=0;bottom=0;right=0;pointerEvents=1;fontSize=16;" parent="343" vertex="1">
                    <mxGeometry x="120" width="140" height="40" as="geometry">
                        <mxRectangle width="140" height="40" as="alternateBounds"/>
                    </mxGeometry>
                </mxCell>
                <mxCell id="347" value="Next Hop IP Address" style="shape=partialRectangle;html=1;whiteSpace=wrap;connectable=0;strokeColor=#82b366;overflow=hidden;fillColor=#d5e8d4;top=0;left=0;bottom=0;right=0;pointerEvents=1;fontSize=16;" parent="343" vertex="1">
                    <mxGeometry x="260" width="160" height="40" as="geometry">
                        <mxRectangle width="160" height="40" as="alternateBounds"/>
                    </mxGeometry>
                </mxCell>
                <mxCell id="349" style="shape=tableRow;horizontal=0;startSize=0;swimlaneHead=0;swimlaneBody=0;strokeColor=inherit;top=0;left=0;bottom=0;right=0;collapsible=0;dropTarget=0;fillColor=none;points=[[0,0.5],[1,0.5]];portConstraint=eastwest;fontSize=16;" parent="342" vertex="1">
                    <mxGeometry y="65" width="420" height="30" as="geometry"/>
                </mxCell>
                <mxCell id="350" value="0.0.0.0/0" style="shape=partialRectangle;html=1;whiteSpace=wrap;connectable=0;strokeColor=inherit;overflow=hidden;fillColor=none;top=0;left=0;bottom=0;right=0;pointerEvents=1;fontSize=16;" parent="349" vertex="1">
                    <mxGeometry width="120" height="30" as="geometry">
                        <mxRectangle width="120" height="30" as="alternateBounds"/>
                    </mxGeometry>
                </mxCell>
                <mxCell id="351" value="Virtual Appliance" style="shape=partialRectangle;html=1;whiteSpace=wrap;connectable=0;strokeColor=inherit;overflow=hidden;fillColor=none;top=0;left=0;bottom=0;right=0;pointerEvents=1;fontSize=16;" parent="349" vertex="1">
                    <mxGeometry x="120" width="140" height="30" as="geometry">
                        <mxRectangle width="140" height="30" as="alternateBounds"/>
                    </mxGeometry>
                </mxCell>
                <mxCell id="353" value="10.0.0.5" style="shape=partialRectangle;html=1;whiteSpace=wrap;connectable=0;strokeColor=inherit;overflow=hidden;fillColor=none;top=0;left=0;bottom=0;right=0;pointerEvents=1;fontSize=16;" parent="349" vertex="1">
                    <mxGeometry x="260" width="160" height="30" as="geometry">
                        <mxRectangle width="160" height="30" as="alternateBounds"/>
                    </mxGeometry>
                </mxCell>
            </root>
        </mxGraphModel>
    </diagram>
</mxfile>